<?xml version="1.0" encoding="utf-8"?>
<!-- Generator: Adobe Illustrator 24.0.0, SVG Export Plug-In . SVG Version: 6.00 Build 0)  -->
<svg version="1.1" id="Capa_1" xmlns="http://www.w3.org/2000/svg" xmlns:xlink="http://www.w3.org/1999/xlink" x="0px" y="0px"
	 viewBox="0 0 471.7 471.7" style="enable-background:new 0 0 471.7 471.7;" xml:space="preserve">
<style type="text/css">
	.st0{fill:#C10000;stroke:#231F20;stroke-width:32;stroke-miterlimit:10;}
</style>
<g>
	<path class="st0" d="M415,82.9c-22.4-22.4-52-34.6-83.6-34.6S270,60.6,247.7,83L236,94.7l-11.9-11.9C201.7,60.4,171.9,48,140.3,48
		c-31.5,0-61.2,12.3-83.5,34.6c-22.4,22.4-34.7,52.1-34.6,83.7c0,31.6,12.4,61.2,34.8,83.6l170.1,170.1c2.4,2.4,5.5,3.6,8.6,3.6
		c3.1,0,6.3-1.2,8.6-3.5l170.5-169.9c22.4-22.4,34.7-52.1,34.7-83.7C449.6,135,437.4,105.3,415,82.9z"/>
</g>
</svg>
